Coordinates
version=1
nRows=13
nColumns=33
inDegrees=yes

Units are S.I. units (second, meters, Newtons, ...)
Angles are in degrees.

endheader
time	ground_thorax_rot_x	ground_thorax_rot_y	ground_thorax_rot_z	ground_thorax_tx	ground_thorax_ty	ground_thorax_tz	clav_prot_r	clav_elev_r	scapula_abduction_r	scapula_elevation_r	scapula_upward_rot_r	scapula_winging_r	shoulder_elv_r	plane_of_elev_r	axial_rot_r	elbow_flexion_r	pro_sup_r	wrist_flex_r	wrist_dev_r	clav_prot_l	clav_elev_l	scapula_abduction_l	scapula_elevation_l	scapula_upward_rot_l	scapula_winging_l	shoulder_elv_l	plane_of_elev_l	axial_rot_l	elbow_flexion_l	pro_sup_l	wrist_flex_l	wrist_dev_l	
6.6000	-32.335747	-29.609196	36.044819	-116.369304	869.550860	-46.173637	19.962077	-45.000000	44.224246	-45.000000	-13.990792	1682.514495	2068.234108	144.431372	-180.000000	1789.157624	62.437282	28.765111	15.969538	-2.157095	34.384147	-32.603155	-45.000000	-45.000000	4052.669392	-4407.730416	134.775022	-119.529812	710.187681	403.957243	13.090680	-23.090552	
6.6100	-32.414655	-29.491542	36.018712	-116.249328	868.927266	-46.142505	19.893399	-45.000000	44.091109	-45.000000	-14.030540	1682.534525	2068.136782	144.444153	-180.000000	1789.134867	61.980205	28.817452	16.104679	-2.111019	34.356513	-32.593437	-45.000000	-45.000000	4052.572742	-4407.731992	134.747192	-119.291799	710.211878	403.908975	13.068221	-23.193409	
6.6200	-32.509629	-29.355805	35.970456	-116.101846	868.303461	-46.110100	19.845175	-45.000000	43.908695	-45.000000	-14.109455	1682.577276	2068.049001	144.444420	-180.000000	1789.115053	61.558053	28.947606	16.266831	-2.104164	34.347238	-32.602905	-45.000000	-45.000000	4052.503774	-4407.731790	134.701408	-119.072790	710.232253	403.859774	13.131995	-23.418065	
6.6300	-32.526616	-29.292059	36.035503	-115.894583	867.664211	-46.076220	19.858996	-45.000000	43.821625	-45.000000	-14.267274	1682.567736	2067.936786	144.443192	-180.000000	1789.138497	61.259264	29.046817	16.360289	-2.100064	34.334179	-32.577870	-45.000000	-45.000000	4052.438606	-4407.741770	134.677857	-118.929720	710.279863	403.830106	13.127134	-23.535981	
6.6400	-32.492822	-29.270168	36.170771	-115.622661	867.025141	-46.039684	19.913308	-45.000000	43.779936	-45.000000	-14.489435	1682.542454	2067.818270	144.443690	-180.000000	1789.195147	61.055855	29.137643	16.412852	-2.094353	34.318939	-32.544052	-45.000000	-45.000000	4052.381994	-4407.760634	134.666638	-118.830441	710.339869	403.810565	13.093996	-23.601221	
6.6500	-32.417870	-29.274518	36.353345	-115.275516	866.398647	-45.999382	20.002442	-45.000000	43.770556	-45.000000	-14.768501	1682.505645	2067.696198	144.436502	-180.000000	1789.282549	60.936262	29.252063	16.440471	-2.110537	34.314472	-32.503913	-45.000000	-45.000000	4052.339124	-4407.785423	134.654509	-118.754797	710.411639	403.794166	13.076566	-23.661994	
6.6600	-32.310159	-29.297791	36.571650	-114.847619	865.801478	-45.953924	20.106095	-45.000000	43.778503	-45.000000	-15.079425	1682.477327	2067.575929	144.435919	-180.000000	1789.398119	60.873371	29.360521	16.445729	-2.115888	34.306836	-32.469751	-45.000000	-45.000000	4052.300996	-4407.813529	134.643642	-118.673708	710.480783	403.773093	13.048740	-23.680859	
6.6700	-32.185355	-29.320694	36.800054	-114.334195	865.248094	-45.901950	20.200856	-45.000000	43.778373	-45.000000	-15.401207	1682.471016	2067.468638	144.441214	-180.000000	1789.540244	60.833523	29.486857	16.444290	-2.131294	34.304695	-32.454884	-45.000000	-45.000000	4052.267578	-4407.844300	134.633669	-118.552445	710.539811	403.737690	13.062260	-23.719829	
6.6800	-32.044787	-29.348121	37.036946	-113.726885	864.744423	-45.842141	20.283975	-45.000000	43.783256	-45.000000	-15.716395	1682.489851	2067.359970	144.460807	-180.000000	1789.700502	60.807194	29.594481	16.435937	-2.125503	34.291561	-32.451514	-45.000000	-45.000000	4052.228890	-4407.869849	134.616350	-118.388563	710.580203	403.684604	13.064473	-23.710187	
6.6900	-31.896797	-29.373107	37.269065	-113.015475	864.289286	-45.773576	20.350116	-45.000000	43.784691	-45.000000	-16.020287	1682.535521	2067.249851	144.487899	-180.000000	1789.875117	60.784129	29.715003	16.433613	-2.127766	34.280772	-32.452290	-45.000000	-45.000000	4052.184727	-4407.882716	134.585477	-118.176071	710.606525	403.608858	13.101306	-23.706589	
6.7000	-31.738924	-29.406553	37.504861	-112.188448	863.875219	-45.695781	20.407840	-45.000000	43.792144	-45.000000	-16.308883	1682.609985	2067.128618	144.526261	-180.000000	1790.054716	60.766004	29.822519	16.438446	-2.117865	34.260507	-32.445554	-45.000000	-45.000000	4052.128024	-4407.873972	134.537544	-117.925158	710.615449	403.510375	13.132749	-23.662385	
6.7100	-31.561273	-29.456431	37.763241	-111.235527	863.491281	-45.609093	20.454794	-45.000000	43.809345	-45.000000	-16.583099	1682.706460	2067.008967	144.573539	-180.000000	1790.244158	60.744726	29.925970	16.447923	-2.119908	34.237816	-32.431965	-45.000000	-45.000000	4052.055813	-4407.849137	134.490590	-117.627235	710.613460	403.389861	13.188501	-23.612061	
6.7200	-31.365053	-29.524144	38.043962	-110.147548	863.123860	-45.514364	20.508393	-45.000000	43.839638	-45.000000	-16.842260	1682.817633	2066.882081	144.619501	-180.000000	1790.431143	60.721122	30.019342	16.474117	-2.127018	34.209815	-32.405341	-45.000000	-45.000000	4051.971735	-4407.807097	134.431407	-117.295683	710.601912	403.250111	13.247278	-23.537214	
